<?xml version="1.0" encoding="UTF-8"?>
<!DOCTYPE svg PUBLIC "-//W3C//DTD SVG 1.1//EN" "http://www.w3.org/Graphics/SVG/1.1/DTD/svg11.dtd">
<svg xmlns="http://www.w3.org/2000/svg" version="1.1" width="1024px" height="1024px" style="shape-rendering:geometricPrecision; text-rendering:geometricPrecision; image-rendering:optimizeQuality; fill-rule:evenodd; clip-rule:evenodd" xmlns:xlink="http://www.w3.org/1999/xlink">
<g><path style="opacity:1" fill="#fefefe" d="M -0.5,-0.5 C 340.833,-0.5 682.167,-0.5 1023.5,-0.5C 1023.5,340.833 1023.5,682.167 1023.5,1023.5C 682.167,1023.5 340.833,1023.5 -0.5,1023.5C -0.5,682.167 -0.5,340.833 -0.5,-0.5 Z"/></g>
<g><path style="opacity:1" fill="#11222d" d="M 251.5,781.5 C 251.938,781.565 252.272,781.399 252.5,781C 249.794,778.629 247.461,775.963 245.5,773C 246.059,772.275 246.392,771.442 246.5,770.5C 245.773,728.515 244.94,686.515 244,644.5C 243.5,685.832 243.333,727.165 243.5,768.5C 242.833,726.331 242.167,683.998 241.5,641.5C 227.525,646.103 213.525,650.603 199.5,655C 189.93,656.965 183.097,653.465 179,644.5C 176.014,633.307 179.847,625.473 190.5,621C 218.541,612.876 246.041,603.376 273,592.5C 269.235,578.191 265.235,563.858 261,549.5C 241.134,435.039 277.967,343.872 371.5,276C 458.517,221.499 547.517,218.166 638.5,266C 711.63,309.038 755.463,372.538 770,456.5C 774.804,502.929 769.304,548.096 753.5,592C 759.816,595.559 766.482,598.559 773.5,601C 794.833,608 816.167,615 837.5,622C 847.919,627.923 850.752,636.423 846,647.5C 840.792,655.114 833.626,657.614 824.5,655C 811.421,649.957 798.087,645.79 784.5,642.5C 784.667,685.168 784.5,727.835 784,770.5C 781.5,777 777,781.5 770.5,784C 598.833,784.667 427.167,784.667 255.5,784C 253.934,783.392 252.6,782.558 251.5,781.5 Z"/></g>
<g><path style="opacity:1" fill="#fefefe" d="M 491.5,267.5 C 576.585,264.133 644.752,296.133 696,363.5C 741.723,429.945 749.556,500.612 719.5,575.5C 667.737,547.581 621.237,512.581 580,470.5C 560.245,449.135 541.078,427.302 522.5,405C 515.662,401.458 508.995,401.791 502.5,406C 472.619,443.55 439.619,478.216 403.5,510C 374.115,535.038 342.282,556.538 308,574.5C 307.5,574.167 307,573.833 306.5,573.5C 275.125,487.063 289.625,409.396 350,340.5C 388.554,299.639 435.721,275.305 491.5,267.5 Z"/></g>
<g><path style="opacity:1" fill="#fefefe" d="M 530.5,468.5 C 586.319,532.82 652.653,583.32 729.5,620C 735.931,623.198 742.598,625.698 749.5,627.5C 749.833,669.172 749.5,710.839 748.5,752.5C 649.754,706.584 581.254,632.584 543,530.5C 535.65,510.44 531.484,489.774 530.5,468.5 Z"/></g>
<g><path style="opacity:1" fill="#fefefe" d="M 279.5,751.5 C 277.506,710.513 276.839,669.18 277.5,627.5C 351.47,596.336 416.303,552.003 472,494.5C 480,485.833 488,477.167 496,468.5C 496.167,470.5 496.333,472.5 496.5,474.5C 490.953,514.973 478.12,552.973 458,588.5C 415.521,661.487 356.021,715.82 279.5,751.5 Z"/></g>
<g><path style="opacity:1" fill="#0f2029" d="M 530.5,588.5 C 530.168,642.336 530.501,696.003 531.5,749.5C 544.5,750.167 557.5,750.833 570.5,751.5C 558.829,751.333 547.162,751.5 535.5,752C 535.032,753.822 534.699,755.989 534.5,758.5C 532.167,758.5 529.833,758.5 527.5,758.5C 527.5,757.5 527.5,756.5 527.5,755.5C 525.167,755.5 522.833,755.5 520.5,755.5C 520.714,753.856 520.38,752.356 519.5,751C 516.854,750.503 514.187,750.336 511.5,750.5C 511.5,745.5 511.5,740.5 511.5,735.5C 514.167,735.5 516.833,735.5 519.5,735.5C 519.5,724.833 519.5,714.167 519.5,703.5C 516.833,703.5 514.167,703.5 511.5,703.5C 511.5,708.833 511.5,714.167 511.5,719.5C 508.833,719.5 506.167,719.5 503.5,719.5C 503.5,729.833 503.5,740.167 503.5,750.5C 501.259,750.954 499.259,750.954 497.5,750.5C 497.5,697.167 497.5,643.833 497.5,590.5C 497.423,589.25 496.756,588.417 495.5,588C 498.531,586.925 500.531,587.925 501.5,591C 500.556,593.719 500.223,596.552 500.5,599.5C 502.833,599.5 505.167,599.5 507.5,599.5C 507.5,607.5 507.5,615.5 507.5,623.5C 511.167,623.5 514.833,623.5 518.5,623.5C 518.223,626.448 518.556,629.281 519.5,632C 522.157,632.175 524.824,632.008 527.5,631.5C 527.357,629.738 527.691,628.071 528.5,626.5C 527.031,623.875 526.365,621.042 526.5,618C 527.794,607.445 529.128,597.612 530.5,588.5 Z"/></g>
<g><path style="opacity:1" fill="#fdfdfd" d="M 532.5,591.5 C 553.582,636.102 582.249,675.269 618.5,709C 634.589,723.093 651.256,736.427 668.5,749C 667.552,749.483 666.552,749.649 665.5,749.5C 636.5,749.5 607.5,749.5 578.5,749.5C 563.009,748.504 547.342,748.17 531.5,748.5C 531.168,695.997 531.501,643.664 532.5,591.5 Z"/></g>
<g><path style="opacity:1" fill="#fefefe" d="M 494.5,592.5 C 495.499,644.331 495.832,696.331 495.5,748.5C 454.997,748.168 414.663,748.501 374.5,749.5C 368.824,749.666 363.157,749.499 357.5,749C 416.495,708.505 462.162,656.338 494.5,592.5 Z"/></g>
<g><path style="opacity:1" fill="#afb4b9" d="M 496.5,590.5 C 496.5,643.5 496.5,696.5 496.5,749.5C 459.833,749.5 423.167,749.5 386.5,749.5C 382.5,749.5 378.5,749.5 374.5,749.5C 414.663,748.501 454.997,748.168 495.5,748.5C 495.832,696.331 495.499,644.331 494.5,592.5C 494.987,591.527 495.487,590.527 496,589.5C 496.399,589.728 496.565,590.062 496.5,590.5 Z"/></g>
<g><path style="opacity:1" fill="#00070f" d="M 496.5,590.5 C 496.833,590.5 497.167,590.5 497.5,590.5C 497.5,643.833 497.5,697.167 497.5,750.5C 460.33,750.832 423.33,750.498 386.5,749.5C 423.167,749.5 459.833,749.5 496.5,749.5C 496.5,696.5 496.5,643.5 496.5,590.5 Z"/></g>
<g><path style="opacity:1" fill="#374349" d="M 277.5,627.5 C 276.839,669.18 277.506,710.513 279.5,751.5C 278.791,752.404 277.791,752.737 276.5,752.5C 276.168,710.663 276.501,668.997 277.5,627.5 Z"/></g>
<g><path style="opacity:1" fill="#061217" d="M 251.5,781.5 C 246.55,778.604 243.883,774.271 243.5,768.5C 243.333,727.165 243.5,685.832 244,644.5C 244.94,686.515 245.773,728.515 246.5,770.5C 246.392,771.442 246.059,772.275 245.5,773C 247.461,775.963 249.794,778.629 252.5,781C 252.272,781.399 251.938,781.565 251.5,781.5 Z"/></g>
<g><path style="opacity:1" fill="#11232d" d="M 830.5,725.5 C 836.281,724.896 841.614,726.062 846.5,729C 858.398,740.229 869.565,752.063 880,764.5C 881.326,777.663 875.493,784.996 862.5,786.5C 859.705,786.547 857.039,786.047 854.5,785C 840.601,774.102 828.434,761.602 818,747.5C 816.892,737.121 821.058,729.787 830.5,725.5 Z"/></g>
<g><path style="opacity:1" fill="#11242f" d="M 183.5,725.5 C 194.472,723.568 202.305,727.568 207,737.5C 207.791,741.926 207.457,746.259 206,750.5C 195.475,762.024 184.642,773.191 173.5,784C 160.665,790.386 151.499,786.886 146,773.5C 145.333,770.167 145.333,766.833 146,763.5C 157.337,749.663 169.837,736.996 183.5,725.5 Z"/></g>
<g><path style="opacity:1" fill="#bdc5ca" d="M 530.5,588.5 C 531.401,589.29 532.068,590.29 532.5,591.5C 531.501,643.664 531.168,695.997 531.5,748.5C 547.342,748.17 563.009,748.504 578.5,749.5C 562.833,749.5 547.167,749.5 531.5,749.5C 530.501,696.003 530.168,642.336 530.5,588.5 Z"/></g>
<g><path style="opacity:1" fill="#040d14" d="M 531.5,749.5 C 547.167,749.5 562.833,749.5 578.5,749.5C 607.5,749.5 636.5,749.5 665.5,749.5C 660.349,750.327 655.016,750.827 649.5,751C 623.169,751.5 596.835,751.667 570.5,751.5C 557.5,750.833 544.5,750.167 531.5,749.5 Z"/></g>
</svg>
